{"asset":{"version":"2.0","generator":"THREE.GLTFExporter"},"scenes":[{"nodes":[0],"name":"AuxScene"}],"scene":0,"nodes":[{"mesh":0}],"bufferViews":[{"buffer":0,"byteOffset":0,"byteLength":5796,"target":34962,"byteStride":12},{"buffer":0,"byteOffset":5796,"byteLength":5796,"target":34962,"byteStride":12}],"buffers":[{"byteLength":11592,"uri":"data:application/octet-stream;base64,"}],"accessors":[{"bufferView":0,"componentType":5126,"count":483,"max":[99.61190795898438,1.7959749698638916,99.61190795898438],"min":[-99.88809967041016,1.1959689855575562,-99.88809967041016],"type":"VEC3"},{"bufferView":1,"componentType":5126,"count":483,"max":[0.4834598898887634,1,0.49614155292510986],"min":[-0.7292844653129578,0.6837146282196045,-0.056682415306568146],"type":"VEC3"}],"materials":[{"pbrMetallicRoughness":{"baseColorFactor":[0.5019607843137255,0.5019607843137255,0.5019607843137255,1],"metallicFactor":0,"roughnessFactor":1}}],"meshes":[{"primitives":[{"mode":4,"attributes":{"POSITION":0,"NORMAL":1},"material":0}]}]}