{
  "accessors": [
    {
      "bufferView": 2,
      "componentType": 5126,
      "count": 705,
      "max": [
        0.20647500455379486,
        0.41872426867485046,
        1.1774282455444336
      ],
      "min": [
        -0.20647500455379486,
        -0.4213065803050995,
        -0.010873883962631226
      ],
      "type": "VEC3"
    },
    {
      "bufferView": 2,
      "byteOffset": 8460,
      "componentType": 5126,
      "count": 705,
      "max": [
        1.0,
        0.9955620765686035,
        1.0
      ],
      "min": [
        -1.0,
        -0.9955620765686035,
        -1.0
      ],
      "type": "VEC3"
    },
    {
      "bufferView": 1,
      "componentType": 5126,
      "count": 705,
      "max": [
        0.9999999403953552,
        0.9999999403953552
      ],
      "min": [
        -1.862645149230957e-09,
        0.0
      ],
      "type": "VEC2"
    },
    {
      "bufferView": 0,
      "componentType": 5125,
      "count": 2229,
      "type": "SCALAR"
    },
    {
      "bufferView": 2,
      "byteOffset": 16920,
      "componentType": 5126,
      "count": 4642,
      "max": [
        0.22465652227401733,
        0.7978018522262573,
        0.4294845461845398
      ],
      "min": [
        -0.22465652227401733,
        -2.9140379428863525,
        -0.9581935405731201
      ],
      "type": "VEC3"
    },
    {
      "bufferView": 2,
      "byteOffset": 72624,
      "componentType": 5126,
      "count": 4642,
      "max": [
        1.0,
        1.0,
        1.0
      ],
      "min": [
        -1.0,
        -1.0,
        -1.0
      ],
      "type": "VEC3"
    },
    {
      "bufferView": 1,
      "byteOffset": 5640,
      "componentType": 5126,
      "count": 4642,
      "max": [
        0.984552800655365,
        0.9076849222183228
      ],
      "min": [
        0.015447214245796204,
        0.015447214245796204
      ],
      "type": "VEC2"
    },
    {
      "bufferView": 0,
      "byteOffset": 8916,
      "componentType": 5125,
      "count": 14361,
      "type": "SCALAR"
    },
    {
      "bufferView": 2,
      "byteOffset": 128328,
      "componentType": 5126,
      "count": 87,
      "max": [
        0.09728546440601349,
        0.42965057492256165,
        0.2871748208999634
      ],
      "min": [
        -0.09728546440601349,
        0.27605772018432617,
        0.23117470741271973
      ],
      "type": "VEC3"
    },
    {
      "bufferView": 2,
      "byteOffset": 129372,
      "componentType": 5126,
      "count": 87,
      "max": [
        1.0,
        0.8229833841323853,
        1.0
      ],
      "min": [
        -0.9927089214324951,
        -0.8229847550392151,
        -1.0
      ],
      "type": "VEC3"
    },
    {
      "bufferView": 1,
      "byteOffset": 42776,
      "componentType": 5126,
      "count": 87,
      "max": [
        0.6390249133110046,
        0.9051851630210876
      ],
      "min": [
        0.507380485534668,
        0.8102916479110718
      ],
      "type": "VEC2"
    },
    {
      "bufferView": 0,
      "byteOffset": 66360,
      "componentType": 5125,
      "count": 219,
      "type": "SCALAR"
    },
    {
      "bufferView": 2,
      "byteOffset": 130416,
      "componentType": 5126,
      "count": 864,
      "max": [
        0.4063575565814972,
        0.19876664876937866,
        0.10000001639127731
      ],
      "min": [
        -0.3609263300895691,
        -0.3019508421421051,
        -0.10000002384185791
      ],
      "type": "VEC3"
    },
    {
      "bufferView": 2,
      "byteOffset": 140784,
      "componentType": 5126,
      "count": 864,
      "max": [
        0.9646255373954773,
        0.9998658299446106,
        1.0
      ],
      "min": [
        -0.9844033718109131,
        -0.9998941421508789,
        -1.0
      ],
      "type": "VEC3"
    },
    {
      "bufferView": 1,
      "byteOffset": 43472,
      "componentType": 5126,
      "count": 864,
      "max": [
        1.0,
        1.0
      ],
      "min": [
        0.21837720274925232,
        0.0
      ],
      "type": "VEC2"
    },
    {
      "bufferView": 0,
      "byteOffset": 67236,
      "componentType": 5125,
      "count": 2436,
      "type": "SCALAR"
    },
    {
      "bufferView": 2,
      "byteOffset": 151152,
      "componentType": 5126,
      "count": 80,
      "max": [
        0.6756318211555481,
        0.2487427443265915,
        0.045931071043014526
      ],
      "min": [
        -0.02267138473689556,
        0.011978551745414734,
        -0.045931000262498856
      ],
      "type": "VEC3"
    },
    {
      "bufferView": 2,
      "byteOffset": 152112,
      "componentType": 5126,
      "count": 80,
      "max": [
        0.7917681932449341,
        0.920468270778656,
        0.9383833408355713
      ],
      "min": [
        -0.5497203469276428,
        -0.9104346036911011,
        -0.9383833408355713
      ],
      "type": "VEC3"
    },
    {
      "bufferView": 1,
      "byteOffset": 50384,
      "componentType": 5126,
      "count": 80,
      "max": [
        0.9968409538269043,
        0.46854257583618164
      ],
      "min": [
        0.0031590580474585295,
        0.0031590580474585295
      ],
      "type": "VEC2"
    },
    {
      "bufferView": 0,
      "byteOffset": 76980,
      "componentType": 5125,
      "count": 354,
      "type": "SCALAR"
    },
    {
      "bufferView": 2,
      "byteOffset": 153072,
      "componentType": 5126,
      "count": 632,
      "max": [
        0.03469494730234146,
        0.036619413644075394,
        0.002254181308671832
      ],
      "min": [
        -0.04438506066799164,
        -0.036619413644075394,
        -0.0022541824728250504
      ],
      "type": "VEC3"
    },
    {
      "bufferView": 2,
      "byteOffset": 160656,
      "componentType": 5126,
      "count": 632,
      "max": [
        1.0,
        1.0,
        0.9999839663505554
      ],
      "min": [
        -1.0,
        -1.0,
        -0.9999839663505554
      ],
      "type": "VEC3"
    },
    {
      "bufferView": 1,
      "byteOffset": 51024,
      "componentType": 5126,
      "count": 632,
      "max": [
        0.9930688738822937,
        1.0
      ],
      "min": [
        0.006931181997060776,
        0.006931181997060776
      ],
      "type": "VEC2"
    },
    {
      "bufferView": 0,
      "byteOffset": 78396,
      "componentType": 5125,
      "count": 2334,
      "type": "SCALAR"
    },
    {
      "bufferView": 2,
      "byteOffset": 168240,
      "componentType": 5126,
      "count": 530,
      "max": [
        0.0890839621424675,
        0.23942014575004578,
        0.3982359766960144
      ],
      "min": [
        -0.0890839621424675,
        -0.04030076041817665,
        -0.09000003337860107
      ],
      "type": "VEC3"
    },
    {
      "bufferView": 2,
      "byteOffset": 174600,
      "componentType": 5126,
      "count": 530,
      "max": [
        1.0,
        1.0,
        1.0
      ],
      "min": [
        -1.0,
        -1.0,
        -1.0
      ],
      "type": "VEC3"
    },
    {
      "bufferView": 1,
      "byteOffset": 56080,
      "componentType": 5126,
      "count": 530,
      "max": [
        0.9700620174407959,
        0.9855654835700989
      ],
      "min": [
        0.18671666085720062,
        0.014434590935707092
      ],
      "type": "VEC2"
    },
    {
      "bufferView": 0,
      "byteOffset": 87732,
      "componentType": 5125,
      "count": 1428,
      "type": "SCALAR"
    },
    {
      "bufferView": 2,
      "byteOffset": 180960,
      "componentType": 5126,
      "count": 276,
      "max": [
        0.034999996423721313,
        0.04879775643348694,
        0.0282505564391613
      ],
      "min": [
        -0.034999996423721313,
        -0.11390610039234161,
        0.008672482334077358
      ],
      "type": "VEC3"
    },
    {
      "bufferView": 2,
      "byteOffset": 184272,
      "componentType": 5126,
      "count": 276,
      "max": [
        1.0,
        1.0,
        1.0
      ],
      "min": [
        -1.0,
        -1.0,
        -1.0
      ],
      "type": "VEC3"
    },
    {
      "bufferView": 1,
      "byteOffset": 60320,
      "componentType": 5126,
      "count": 276,
      "max": [
        0.7072861194610596,
        0.994499683380127
      ],
      "min": [
        0.005500390660017729,
        0.005500390660017729
      ],
      "type": "VEC2"
    },
    {
      "bufferView": 0,
      "byteOffset": 93444,
      "componentType": 5125,
      "count": 918,
      "type": "SCALAR"
    },
    {
      "bufferView": 2,
      "byteOffset": 187584,
      "componentType": 5126,
      "count": 265,
      "max": [
        0.03464674577116966,
        0.035181257873773575,
        0.28325966000556946
      ],
      "min": [
        -0.03464680165052414,
        -0.03518126159906387,
        -0.147783562541008
      ],
      "type": "VEC3"
    },
    {
      "bufferView": 2,
      "byteOffset": 190764,
      "componentType": 5126,
      "count": 265,
      "max": [
        0.9848102331161499,
        1.0,
        0.9993206858634949
      ],
      "min": [
        -0.9848101735115051,
        -1.0,
        -1.0
      ],
      "type": "VEC3"
    },
    {
      "bufferView": 1,
      "byteOffset": 62528,
      "componentType": 5126,
      "count": 265,
      "max": [
        1.0,
        1.0
      ],
      "min": [
        0.04370061680674553,
        0.5647815465927124
      ],
      "type": "VEC2"
    },
    {
      "bufferView": 0,
      "byteOffset": 97116,
      "componentType": 5125,
      "count": 912,
      "type": "SCALAR"
    },
    {
      "bufferView": 2,
      "byteOffset": 193944,
      "componentType": 5126,
      "count": 428,
      "max": [
        0.05802474543452263,
        0.16878405213356018,
        0.002473056549206376
      ],
      "min": [
        -0.09292656183242798,
        -0.16878405213356018,
        -0.0024730581790208817
      ],
      "type": "VEC3"
    },
    {
      "bufferView": 2,
      "byteOffset": 199080,
      "componentType": 5126,
      "count": 428,
      "max": [
        1.0,
        1.0,
        1.0
      ],
      "min": [
        -1.0,
        -1.0,
        -1.0
      ],
      "type": "VEC3"
    },
    {
      "bufferView": 1,
      "byteOffset": 64648,
      "componentType": 5126,
      "count": 428,
      "max": [
        1.0,
        0.9969587326049805
      ],
      "min": [
        0.0033789363224059343,
        0.003041342366486788
      ],
      "type": "VEC2"
    },
    {
      "bufferView": 0,
      "byteOffset": 100764,
      "componentType": 5125,
      "count": 1146,
      "type": "SCALAR"
    },
    {
      "bufferView": 2,
      "byteOffset": 204216,
      "componentType": 5126,
      "count": 90,
      "max": [
        0.11468108743429184,
        -0.2997373044490814,
        -0.23748791217803955
      ],
      "min": [
        0.09468100219964981,
        -0.3857139050960541,
        -0.3756891191005707
      ],
      "type": "VEC3"
    },
    {
      "bufferView": 2,
      "byteOffset": 205296,
      "componentType": 5126,
      "count": 90,
      "max": [
        1.0,
        0.9969569444656372,
        0.9848078489303589
      ],
      "min": [
        0.0,
        -0.9969567656517029,
        -0.9834817051887512
      ],
      "type": "VEC3"
    },
    {
      "bufferView": 1,
      "byteOffset": 68072,
      "componentType": 5126,
      "count": 90,
      "max": [
        0.2128564864397049,
        0.8745769262313843
      ],
      "min": [
        0.1698758453130722,
        0.837112307548523
      ],
      "type": "VEC2"
    },
    {
      "bufferView": 0,
      "byteOffset": 105348,
      "componentType": 5125,
      "count": 372,
      "type": "SCALAR"
    }
  ],
  "asset": {
    "extras": {
      "author": "YieldingMist206 (https://sketchfab.com/YieldingMist206)",
      "license": "CC-BY-4.0 (http://creativecommons.org/licenses/by/4.0/)",
      "source": "https://sketchfab.com/3d-models/m4a1-944e8264b2194aeb9ebcc86587cea8b6",
      "title": "M4A1"
    },
    "generator": "Sketchfab-13.66.0",
    "version": "2.0"
  },
  "bufferViews": [
    {
      "buffer": 0,
      "byteLength": 106836,
      "name": "floatBufferViews",
      "target": 34963
    },
    {
      "buffer": 0,
      "byteLength": 68792,
      "byteOffset": 106836,
      "byteStride": 8,
      "name": "floatBufferViews",
      "target": 34962
    },
    {
      "buffer": 0,
      "byteLength": 206376,
      "byteOffset": 175628,
      "byteStride": 12,
      "name": "floatBufferViews",
      "target": 34962
    }
  ],
  "buffers": [
    {
      "byteLength": 382004,
      "uri": "scene.bin"
    }
  ],
  "extensionsRequired": [
    "KHR_materials_pbrSpecularGlossiness"
  ],
  "extensionsUsed": [
    "KHR_materials_pbrSpecularGlossiness"
  ],
  "images": [
    {
      "uri": "textures/Metal1_diffuse.png"
    },
    {
      "uri": "textures/Metal2_diffuse.png"
    }
  ],
  "materials": [
    {
      "doubleSided": true,
      "extensions": {
        "KHR_materials_pbrSpecularGlossiness": {
          "diffuseFactor": [
            1.0,
            1.0,
            1.0,
            1.0
          ],
          "diffuseTexture": {
            "index": 0
          },
          "glossinessFactor": 0.19595917942265426,
          "specularFactor": [
            0.05,
            0.05,
            0.05
          ]
        }
      },
      "name": "Metal1"
    },
    {
      "doubleSided": true,
      "extensions": {
        "KHR_materials_pbrSpecularGlossiness": {
          "diffuseFactor": [
            1.0,
            1.0,
            1.0,
            1.0
          ],
          "diffuseTexture": {
            "index": 1
          },
          "glossinessFactor": 0.19595917942265426,
          "specularFactor": [
            0.05,
            0.05,
            0.05
          ]
        }
      },
      "name": "Metal2"
    }
  ],
  "meshes": [
    {
      "name": "Stock_Metal1_0",
      "primitives": [
        {
          "attributes": {
            "NORMAL": 1,
            "POSITION": 0,
            "TEXCOORD_0": 2
          },
          "indices": 3,
          "material": 0,
          "mode": 4
        }
      ]
    },
    {
      "name": "Base_Metal1_0",
      "primitives": [
        {
          "attributes": {
            "NORMAL": 5,
            "POSITION": 4,
            "TEXCOORD_0": 6
          },
          "indices": 7,
          "material": 0,
          "mode": 4
        }
      ]
    },
    {
      "name": "Base.001_Metal2_0",
      "primitives": [
        {
          "attributes": {
            "NORMAL": 9,
            "POSITION": 8,
            "TEXCOORD_0": 10
          },
          "indices": 11,
          "material": 1,
          "mode": 4
        }
      ]
    },
    {
      "name": "Clip_Metal1_0",
      "primitives": [
        {
          "attributes": {
            "NORMAL": 13,
            "POSITION": 12,
            "TEXCOORD_0": 14
          },
          "indices": 15,
          "material": 0,
          "mode": 4
        }
      ]
    },
    {
      "name": "Trigger_Metal2_0",
      "primitives": [
        {
          "attributes": {
            "NORMAL": 17,
            "POSITION": 16,
            "TEXCOORD_0": 18
          },
          "indices": 19,
          "material": 1,
          "mode": 4
        }
      ]
    },
    {
      "name": "Rear_Sights_Metal1_0",
      "primitives": [
        {
          "attributes": {
            "NORMAL": 21,
            "POSITION": 20,
            "TEXCOORD_0": 22
          },
          "indices": 23,
          "material": 0,
          "mode": 4
        }
      ]
    },
    {
      "name": "Front_Sights_Metal1_0",
      "primitives": [
        {
          "attributes": {
            "NORMAL": 25,
            "POSITION": 24,
            "TEXCOORD_0": 26
          },
          "indices": 27,
          "material": 0,
          "mode": 4
        }
      ]
    },
    {
      "name": "Selector_Metal2_0",
      "primitives": [
        {
          "attributes": {
            "NORMAL": 29,
            "POSITION": 28,
            "TEXCOORD_0": 30
          },
          "indices": 31,
          "material": 1,
          "mode": 4
        }
      ]
    },
    {
      "name": "Charge_handle_Metal1_0",
      "primitives": [
        {
          "attributes": {
            "NORMAL": 33,
            "POSITION": 32,
            "TEXCOORD_0": 34
          },
          "indices": 35,
          "material": 0,
          "mode": 4
        }
      ]
    },
    {
      "name": "Ejection_Port_Metal2_0",
      "primitives": [
        {
          "attributes": {
            "NORMAL": 37,
            "POSITION": 36,
            "TEXCOORD_0": 38
          },
          "indices": 39,
          "material": 1,
          "mode": 4
        }
      ]
    },
    {
      "name": "Clip_Release_Metal2_0",
      "primitives": [
        {
          "attributes": {
            "NORMAL": 41,
            "POSITION": 40,
            "TEXCOORD_0": 42
          },
          "indices": 43,
          "material": 1,
          "mode": 4
        }
      ]
    }
  ],
  "nodes": [
    {
      "children": [
        1
      ],
      "matrix": [
        0.0,
        -2.220446049250313e-16,
        1.0,
        0.0,
        1.0,
        0.0,
        0.0,
        0.0,
        0.0,
        1.0,
        2.220446049250313e-16,
        0.0,
        0.0,
        0.0,
        0.0,
        1.0
      ],
      "name": "Sketchfab_model"
    },
    {
      "children": [
        2
      ],
      "matrix": [
        0.009999999776482582,
        0.0,
        0.0,
        0.0,
        0.0,
        0.0,
        0.009999999776482582,
        0.0,
        0.0,
        -0.009999999776482582,
        0.0,
        0.0,
        0.0,
        0.0,
        0.0,
        1.0
      ],
      "name": "m4a1.fbx"
    },
    {
      "children": [
        3,
        5,
        9,
        11,
        13,
        15,
        17,
        19,
        21,
        23
      ],
      "name": "RootNode"
    },
    {
      "children": [
        4
      ],
      "matrix": [
        100.0,
        0.0,
        0.0,
        0.0,
        0.0,
        99.5561964496496,
        -9.41083144460552,
        0.0,
        0.0,
        9.41083144460552,
        99.5561964496496,
        0.0,
        0.0,
        -9.30000114440918,
        -235.29998779296875,
        1.0
      ],
      "name": "Stock"
    },
    {
      "mesh": 0,
      "name": "Stock_Metal1_0"
    },
    {
      "children": [
        6,
        7
      ],
      "matrix": [
        100.0,
        0.0,
        0.0,
        0.0,
        0.0,
        -1.629206793918314e-05,
        -99.99999999999868,
        0.0,
        0.0,
        99.99999999999868,
        -1.629206793918314e-05,
        0.0,
        0.0,
        21.899999618530273,
        -55.900001525878906,
        1.0
      ],
      "name": "Base"
    },
    {
      "mesh": 1,
      "name": "Base_Metal1_0"
    },
    {
      "children": [
        8
      ],
      "matrix": [
        1.0,
        0.0,
        0.0,
        0.0,
        0.0,
        1.0,
        -2.646977960169688e-23,
        0.0,
        0.0,
        2.646977960169688e-23,
        1.0,
        0.0,
        0.0,
        0.0,
        0.0,
        1.0
      ],
      "name": "Base.001"
    },
    {
      "mesh": 2,
      "name": "Base.001_Metal2_0"
    },
    {
      "children": [
        10
      ],
      "matrix": [
        -4.371139006309477e-06,
        -99.99999999999991,
        -1.1102230246251565e-14,
        0.0,
        -4.371139011860592e-06,
        1.9984014443252818e-13,
        -99.99999999999991,
        0.0,
        99.99999999999982,
        -4.371139011860592e-06,
        -4.371139006309477e-06,
        0.0,
        1.6938077188662776e-14,
        -54.38231658935547,
        -23.434612274169922,
        1.0
      ],
      "name": "Clip"
    },
    {
      "mesh": 3,
      "name": "Clip_Metal1_0"
    },
    {
      "children": [
        12
      ],
      "matrix": [
        -1.0039731463480474e-06,
        -22.968227386474588,
        -2.5499854879290195e-15,
        0.0,
        -1.00397314762304e-06,
        4.589973878272235e-14,
        -22.968227386474588,
        0.0,
        22.968227386474567,
        -1.00397314762304e-06,
        -1.0039731463480474e-06,
        0.0,
        -6.957330846553639e-15,
        -9.433032989501953,
        -68.29549407958984,
        1.0
      ],
      "name": "Trigger"
    },
    {
      "mesh": 4,
      "name": "Trigger_Metal2_0"
    },
    {
      "children": [
        14
      ],
      "matrix": [
        -1.629206793918314e-05,
        -99.99999999999856,
        4.371139183945161e-06,
        0.0,
        -99.99999999999753,
        1.6292068616419186e-05,
        1.5099579909783694e-05,
        0.0,
        -1.5099580621932473e-05,
        -4.3711367239112345e-06,
        -99.99999999999875,
        0.0,
        -1.0928474989649502e-14,
        57.070552825927734,
        -97.21997833251953,
        1.0
      ],
      "name": "Rear_Sights"
    },
    {
      "mesh": 5,
      "name": "Rear_Sights_Metal1_0"
    },
    {
      "children": [
        16
      ],
      "matrix": [
        100.0,
        0.0,
        0.0,
        0.0,
        -0.0,
        -1.629206793918314e-05,
        -99.99999999999868,
        0.0,
        0.0,
        99.99999999999868,
        -1.629206793918314e-05,
        0.0,
        -1.685330443723567e-14,
        21.928380966186523,
        137.54481506347656,
        1.0
      ],
      "name": "Front_Sights"
    },
    {
      "mesh": 6,
      "name": "Front_Sights_Metal1_0"
    },
    {
      "children": [
        18
      ],
      "matrix": [
        -1.6292067961387602e-05,
        99.9999999999985,
        5.960463766996327e-06,
        0.0,
        4.371139955550163e-06,
        -5.960463056453591e-06,
        99.99999999999973,
        0.0,
        99.99999999999858,
        1.6292068227841128e-05,
        -4.371138984105016e-06,
        0.0,
        9.488697052001953,
        0.0,
        -89.0,
        1.0
      ],
      "name": "Selector"
    },
    {
      "mesh": 7,
      "name": "Selector_Metal2_0"
    },
    {
      "children": [
        20
      ],
      "matrix": [
        58.72804982880609,
        -9.145399679018808e-15,
        20.681408790619027,
        0.0,
        -9.040130248811575e-07,
        62.263183593749936,
        2.5670844321115007e-06,
        0.0,
        -20.68140879061901,
        -2.721610357559968e-06,
        58.72804982880604,
        0.0,
        12.087132453918457,
        21.899999618530273,
        -105.87484741210938,
        1.0
      ],
      "name": "Charge_handle"
    },
    {
      "mesh": 8,
      "name": "Charge_handle_Metal1_0"
    },
    {
      "children": [
        22
      ],
      "matrix": [
        -4.371139006309477e-06,
        -99.99999999999991,
        -1.1102230246251565e-14,
        0.0,
        -4.371139011860592e-06,
        1.9984014443252818e-13,
        -99.99999999999991,
        0.0,
        99.99999999999982,
        -4.371139011860592e-06,
        -4.371139006309477e-06,
        0.0,
        8.87889289855957,
        23.673763275146484,
        -28.061845779418945,
        1.0
      ],
      "name": "Ejection_Port"
    },
    {
      "mesh": 9,
      "name": "Ejection_Port_Metal2_0"
    },
    {
      "children": [
        24
      ],
      "matrix": [
        100.0,
        0.0,
        0.0,
        0.0,
        0.0,
        -1.629206793918314e-05,
        -99.99999999999868,
        0.0,
        0.0,
        99.99999999999868,
        -1.629206793918314e-05,
        0.0,
        0.0,
        21.899999618530273,
        -55.900001525878906,
        1.0
      ],
      "name": "Clip_Release"
    },
    {
      "mesh": 10,
      "name": "Clip_Release_Metal2_0"
    }
  ],
  "samplers": [
    {
      "magFilter": 9729,
      "minFilter": 9987,
      "wrapS": 10497,
      "wrapT": 10497
    }
  ],
  "scene": 0,
  "scenes": [
    {
      "name": "Sketchfab_Scene",
      "nodes": [
        0
      ]
    }
  ],
  "textures": [
    {
      "sampler": 0,
      "source": 0
    },
    {
      "sampler": 0,
      "source": 1
    }
  ]
}
